<mxfile host="app.diagrams.net" agent="Mozilla/5.0 (Windows NT 10.0; Win64; x64) AppleWebKit/537.36 (KHTML, like Gecko) Chrome/134.0.0.0 Safari/537.36" version="26.2.4">
  <diagram name="Página-1" id="Bw-3vuzHvK8cUdGuyqDx">
    <mxGraphModel dx="5319" dy="-5583" grid="1" gridSize="10" guides="1" tooltips="1" connect="1" arrows="1" fold="1" page="1" pageScale="1" pageWidth="583" pageHeight="827" background="none" math="0" shadow="1">
      <root>
        <mxCell id="0" />
        <mxCell id="1" parent="0" />
        <mxCell id="2x62SgGYw6rRhBSeBtnu-255" style="edgeStyle=orthogonalEdgeStyle;rounded=0;orthogonalLoop=1;jettySize=auto;html=1;exitX=0.5;exitY=0.5;exitDx=0;exitDy=0;exitPerimeter=0;" parent="1" source="2x62SgGYw6rRhBSeBtnu-256" target="2x62SgGYw6rRhBSeBtnu-258" edge="1">
          <mxGeometry relative="1" as="geometry" />
        </mxCell>
        <mxCell id="2x62SgGYw6rRhBSeBtnu-256" value="Empreendedor/Utilizador" style="shape=umlActor;verticalLabelPosition=bottom;verticalAlign=top;html=1;outlineConnect=0;labelBackgroundColor=none;" parent="1" vertex="1">
          <mxGeometry x="-1630" y="7825" width="30" height="60" as="geometry" />
        </mxCell>
        <mxCell id="2x62SgGYw6rRhBSeBtnu-257" style="edgeStyle=orthogonalEdgeStyle;rounded=0;orthogonalLoop=1;jettySize=auto;html=1;exitX=1;exitY=0.5;exitDx=0;exitDy=0;strokeColor=#97D077;" parent="1" source="2x62SgGYw6rRhBSeBtnu-258" target="2x62SgGYw6rRhBSeBtnu-260" edge="1">
          <mxGeometry relative="1" as="geometry" />
        </mxCell>
        <mxCell id="2x62SgGYw6rRhBSeBtnu-258" value="Login" style="ellipse;whiteSpace=wrap;html=1;labelBackgroundColor=none;fillColor=#d5e8d4;strokeColor=#82b366;" parent="1" vertex="1">
          <mxGeometry x="-1536" y="7820" width="90" height="70" as="geometry" />
        </mxCell>
        <mxCell id="2x62SgGYw6rRhBSeBtnu-259" style="edgeStyle=orthogonalEdgeStyle;rounded=0;orthogonalLoop=1;jettySize=auto;html=1;exitX=1;exitY=0.5;exitDx=0;exitDy=0;entryX=0;entryY=0.5;entryDx=0;entryDy=0;" parent="1" source="2x62SgGYw6rRhBSeBtnu-260" target="2x62SgGYw6rRhBSeBtnu-264" edge="1">
          <mxGeometry relative="1" as="geometry" />
        </mxCell>
        <mxCell id="2x62SgGYw6rRhBSeBtnu-260" value="Acesso a conta" style="ellipse;whiteSpace=wrap;html=1;labelBackgroundColor=none;fillColor=#e1d5e7;strokeColor=#9673A6;" parent="1" vertex="1">
          <mxGeometry x="-1385" y="7820" width="90" height="70" as="geometry" />
        </mxCell>
        <mxCell id="2x62SgGYw6rRhBSeBtnu-261" style="edgeStyle=orthogonalEdgeStyle;rounded=0;orthogonalLoop=1;jettySize=auto;html=1;exitX=1;exitY=0.5;exitDx=0;exitDy=0;entryX=0;entryY=0.5;entryDx=0;entryDy=0;fillColor=#bac8d3;strokeColor=#23445D;" parent="1" source="2x62SgGYw6rRhBSeBtnu-264" target="2x62SgGYw6rRhBSeBtnu-265" edge="1">
          <mxGeometry relative="1" as="geometry" />
        </mxCell>
        <mxCell id="2x62SgGYw6rRhBSeBtnu-262" style="edgeStyle=orthogonalEdgeStyle;rounded=0;orthogonalLoop=1;jettySize=auto;html=1;exitX=1;exitY=0.5;exitDx=0;exitDy=0;entryX=0;entryY=0.5;entryDx=0;entryDy=0;fillColor=#bac8d3;strokeColor=#23445d;" parent="1" source="2x62SgGYw6rRhBSeBtnu-264" target="2x62SgGYw6rRhBSeBtnu-266" edge="1">
          <mxGeometry relative="1" as="geometry" />
        </mxCell>
        <mxCell id="2x62SgGYw6rRhBSeBtnu-263" style="edgeStyle=orthogonalEdgeStyle;rounded=0;orthogonalLoop=1;jettySize=auto;html=1;exitX=1;exitY=0.5;exitDx=0;exitDy=0;entryX=0;entryY=0.5;entryDx=0;entryDy=0;fillColor=#bac8d3;strokeColor=#23445d;" parent="1" source="2x62SgGYw6rRhBSeBtnu-264" target="2x62SgGYw6rRhBSeBtnu-267" edge="1">
          <mxGeometry relative="1" as="geometry" />
        </mxCell>
        <mxCell id="2x62SgGYw6rRhBSeBtnu-264" value="Relatórios" style="ellipse;whiteSpace=wrap;html=1;labelBackgroundColor=none;fillColor=#bac8d3;strokeColor=#23445d;" parent="1" vertex="1">
          <mxGeometry x="-1235" y="7820" width="90" height="70" as="geometry" />
        </mxCell>
        <mxCell id="2x62SgGYw6rRhBSeBtnu-265" value="Geração do relatorios siimples" style="ellipse;whiteSpace=wrap;html=1;labelBackgroundColor=none;strokeColor=#7EA6E0;" parent="1" vertex="1">
          <mxGeometry x="-985.5" y="7820" width="90" height="70" as="geometry" />
        </mxCell>
        <mxCell id="2x62SgGYw6rRhBSeBtnu-266" value="Geração do relatorios detalhados" style="ellipse;whiteSpace=wrap;html=1;labelBackgroundColor=none;strokeColor=#7EA6E0;" parent="1" vertex="1">
          <mxGeometry x="-1075.5" y="7960" width="90" height="70" as="geometry" />
        </mxCell>
        <mxCell id="2x62SgGYw6rRhBSeBtnu-267" value="Gerar PDF dos serviços prestados" style="ellipse;whiteSpace=wrap;html=1;labelBackgroundColor=none;strokeColor=#7EA6E0;" parent="1" vertex="1">
          <mxGeometry x="-1075.5" y="7700" width="90" height="70" as="geometry" />
        </mxCell>
        <mxCell id="2x62SgGYw6rRhBSeBtnu-268" style="edgeStyle=orthogonalEdgeStyle;rounded=0;orthogonalLoop=1;jettySize=auto;html=1;exitX=0;exitY=0.5;exitDx=0;exitDy=0;dashed=1;strokeColor=#23445D;" parent="1" source="2x62SgGYw6rRhBSeBtnu-270" target="2x62SgGYw6rRhBSeBtnu-265" edge="1">
          <mxGeometry relative="1" as="geometry" />
        </mxCell>
        <mxCell id="2x62SgGYw6rRhBSeBtnu-269" value="&amp;lt;&amp;lt;extend&amp;gt;&amp;gt;" style="edgeLabel;html=1;align=center;verticalAlign=middle;resizable=0;points=[];" parent="2x62SgGYw6rRhBSeBtnu-268" vertex="1" connectable="0">
          <mxGeometry x="0.1625" y="-1" relative="1" as="geometry">
            <mxPoint x="9" y="1" as="offset" />
          </mxGeometry>
        </mxCell>
        <mxCell id="2x62SgGYw6rRhBSeBtnu-270" value="Gerar Relatorio simples Financeiro" style="ellipse;whiteSpace=wrap;html=1;labelBackgroundColor=none;strokeColor=#7EA6E0;" parent="1" vertex="1">
          <mxGeometry x="-785" y="7820" width="90" height="70" as="geometry" />
        </mxCell>
        <mxCell id="2x62SgGYw6rRhBSeBtnu-271" style="edgeStyle=orthogonalEdgeStyle;rounded=0;orthogonalLoop=1;jettySize=auto;html=1;exitX=0.5;exitY=1;exitDx=0;exitDy=0;entryX=0.5;entryY=0;entryDx=0;entryDy=0;dashed=1;strokeColor=#23445D;" parent="1" source="2x62SgGYw6rRhBSeBtnu-273" target="2x62SgGYw6rRhBSeBtnu-270" edge="1">
          <mxGeometry relative="1" as="geometry" />
        </mxCell>
        <mxCell id="2x62SgGYw6rRhBSeBtnu-272" value="&amp;lt;&amp;lt;extended&amp;gt;&amp;gt;" style="edgeLabel;html=1;align=center;verticalAlign=middle;resizable=0;points=[];" parent="2x62SgGYw6rRhBSeBtnu-271" vertex="1" connectable="0">
          <mxGeometry x="-0.1467" y="-1" relative="1" as="geometry">
            <mxPoint as="offset" />
          </mxGeometry>
        </mxCell>
        <mxCell id="2x62SgGYw6rRhBSeBtnu-273" value="Gasto com Funcionario" style="ellipse;whiteSpace=wrap;html=1;labelBackgroundColor=none;strokeColor=#7EA6E0;" parent="1" vertex="1">
          <mxGeometry x="-785.5" y="7680" width="90" height="70" as="geometry" />
        </mxCell>
        <mxCell id="2x62SgGYw6rRhBSeBtnu-274" style="edgeStyle=orthogonalEdgeStyle;rounded=0;orthogonalLoop=1;jettySize=auto;html=1;exitX=0;exitY=0.5;exitDx=0;exitDy=0;entryX=0.5;entryY=0;entryDx=0;entryDy=0;dashed=1;strokeColor=#23445D;" parent="1" source="2x62SgGYw6rRhBSeBtnu-276" target="2x62SgGYw6rRhBSeBtnu-266" edge="1">
          <mxGeometry relative="1" as="geometry" />
        </mxCell>
        <mxCell id="2x62SgGYw6rRhBSeBtnu-275" value="&amp;lt;&amp;lt;extend&amp;gt;&amp;gt;" style="edgeLabel;html=1;align=center;verticalAlign=middle;resizable=0;points=[];" parent="2x62SgGYw6rRhBSeBtnu-274" vertex="1" connectable="0">
          <mxGeometry x="0.0879" y="1" relative="1" as="geometry">
            <mxPoint as="offset" />
          </mxGeometry>
        </mxCell>
        <mxCell id="2x62SgGYw6rRhBSeBtnu-276" value="Gerar relatorio do desempenho de funcionario" style="ellipse;whiteSpace=wrap;html=1;labelBackgroundColor=none;strokeColor=#7EA6E0;" parent="1" vertex="1">
          <mxGeometry x="-945.5" y="7900" width="90" height="70" as="geometry" />
        </mxCell>
        <mxCell id="2x62SgGYw6rRhBSeBtnu-277" style="edgeStyle=orthogonalEdgeStyle;rounded=0;orthogonalLoop=1;jettySize=auto;html=1;exitX=0;exitY=0.5;exitDx=0;exitDy=0;entryX=0.5;entryY=1;entryDx=0;entryDy=0;dashed=1;strokeColor=#23445D;" parent="1" source="2x62SgGYw6rRhBSeBtnu-279" target="2x62SgGYw6rRhBSeBtnu-266" edge="1">
          <mxGeometry relative="1" as="geometry" />
        </mxCell>
        <mxCell id="2x62SgGYw6rRhBSeBtnu-278" value="&amp;lt;&amp;lt;extend&amp;gt;&amp;gt;" style="edgeLabel;html=1;align=center;verticalAlign=middle;resizable=0;points=[];" parent="2x62SgGYw6rRhBSeBtnu-277" vertex="1" connectable="0">
          <mxGeometry x="-0.1697" relative="1" as="geometry">
            <mxPoint x="-10" as="offset" />
          </mxGeometry>
        </mxCell>
        <mxCell id="2x62SgGYw6rRhBSeBtnu-279" value="Gerar relatorio do desempenho do serviço" style="ellipse;whiteSpace=wrap;html=1;labelBackgroundColor=none;strokeColor=#7EA6E0;" parent="1" vertex="1">
          <mxGeometry x="-945.5" y="8020" width="90" height="70" as="geometry" />
        </mxCell>
      </root>
    </mxGraphModel>
  </diagram>
</mxfile>
